<?xml version="1.0" standalone="no"?>
<!DOCTYPE svg PUBLIC "-//W3C//DTD SVG 20010904//EN"
 "http://www.w3.org/TR/2001/REC-SVG-20010904/DTD/svg10.dtd">
<svg version="1.0" xmlns="http://www.w3.org/2000/svg"
 width="1024.000000pt" height="1024.000000pt" viewBox="0 0 1024.000000 1024.000000"
 preserveAspectRatio="xMidYMid meet">
<metadata>
Created by potrace 1.11, written by Peter Selinger 2001-2013
</metadata>
<g transform="translate(0.000000,1024.000000) scale(0.100000,-0.100000)"
fill="#000000" stroke="none">
<path d="M4870 10233 c-1143 -64 -2163 -464 -3040 -1191 -148 -123 -509 -484
-632 -632 -526 -634 -880 -1344 -1063 -2125 -176 -756 -176 -1574 0 -2330 183
-781 537 -1491 1063 -2125 123 -148 484 -509 632 -632 828 -686 1772 -1076
2855 -1180 168 -16 702 -16 870 0 743 71 1419 277 2032 617 471 262 822 531
1208 926 774 791 1263 1809 1404 2924 40 317 42 472 39 2605 -4 1920 -5 2050
-22 2120 -65 274 -169 466 -355 651 -185 186 -376 290 -651 355 -71 17 -197
18 -2180 19 -1158 1 -2130 0 -2160 -2z m4225 -648 c232 -49 425 -236 485 -471
20 -76 20 -120 20 -2128 0 -1346 -4 -2098 -11 -2190 -102 -1356 -790 -2565
-1909 -3354 -175 -123 -364 -233 -585 -342 -485 -238 -937 -370 -1500 -437
-212 -25 -738 -25 -950 0 -563 67 -1015 199 -1500 437 -445 219 -798 468
-1158 820 -863 841 -1347 1991 -1347 3200 0 1876 1166 3550 2929 4205 364 135
814 233 1206 264 61 4 1042 9 2180 9 1783 1 2080 0 2140 -13z"/>
<path d="M4955 8953 c-842 -40 -1612 -334 -2270 -867 -140 -114 -415 -388
-531 -531 -482 -594 -767 -1276 -850 -2037 -23 -206 -23 -590 0 -796 83 -761
367 -1441 850 -2037 115 -141 390 -416 531 -531 596 -483 1276 -767 2037 -850
206 -23 590 -23 796 0 761 83 1441 367 2037 850 141 115 416 390 531 531 420
519 690 1101 808 1747 28 151 51 364 61 561 l7 127 -641 0 -641 0 0 1920 0
1920 -1332 -2 c-733 -1 -1360 -3 -1393 -5z m1445 -2616 c0 -1480 2 -1430 -62
-1622 -142 -423 -484 -735 -928 -846 -84 -21 -118 -24 -290 -24 -172 0 -206 3
-290 24 -483 120 -837 472 -958 950 -25 97 -27 122 -27 301 0 178 3 204 27
300 29 115 76 234 132 335 41 73 140 207 180 245 l27 24 -453 454 -453 453 65
60 c406 376 906 608 1450 674 76 9 312 13 843 14 l737 1 0 -1343z"/>
</g>
</svg>
