<?xml version="1.0" encoding="utf-8"?>
<!-- Generator: Adobe Illustrator 21.1.0, SVG Export Plug-In . SVG Version: 6.00 Build 0)  -->
<svg version="1.1" id="Layer_1" xmlns="http://www.w3.org/2000/svg" xmlns:xlink="http://www.w3.org/1999/xlink" x="0px" y="0px"
	 viewBox="0 0 100 100" style="enable-background:new 0 0 100 100;" xml:space="preserve">
<g>
	<g>
		<circle cx="50" cy="71.6" r="2"/>
		<circle cx="42" cy="59.6" r="2"/>
		<circle cx="58" cy="59.6" r="2"/>
	</g>
	<g>
		<path d="M42,65.6c-1.1,0-2,0.9-2,2v4c0,1.1,0.9,2,2,2c1.1,0,2-0.9,2-2v-4C44,66.5,43.1,65.6,42,65.6z"/>
		<path d="M50,57.6c-1.1,0-2,0.9-2,2v4c0,1.1,0.9,2,2,2c1.1,0,2-0.9,2-2v-4C52,58.5,51.1,57.6,50,57.6z"/>
		<path d="M58,65.6c-1.1,0-2,0.9-2,2v4c0,1.1,0.9,2,2,2c1.1,0,2-0.9,2-2v-4C60,66.5,59.1,65.6,58,65.6z"/>
	</g>
</g>
<path d="M60,41.6c-0.7,0-1.4,0.1-2,0.2c-2.7-4.9-8-8.2-14-8.2c-8.8,0-16,7.2-16,16c0,5.9,3.2,11.1,8,13.8v-4.9c-2.5-2.2-4-5.4-4-8.9
	c0-6.6,5.4-12,12-12c5.7,0,10.4,4,11.7,9.3c1.2-0.8,2.7-1.3,4.3-1.3c4.4,0,8,3.6,8,8c0,3-1.6,5.5-4,6.9v4.4c4.7-1.7,8-6.1,8-11.3
	C72,47,66.6,41.6,60,41.6z"/>
</svg>
