<?xml version="1.0" encoding="utf-8"?>
<!-- Generator: Adobe Illustrator 21.1.0, SVG Export Plug-In . SVG Version: 6.00 Build 0)  -->
<svg version="1.1" id="Layer_1" xmlns="http://www.w3.org/2000/svg" xmlns:xlink="http://www.w3.org/1999/xlink" x="0px" y="0px"
	 viewBox="0 0 100 100" style="enable-background:new 0 0 100 100;" xml:space="preserve">
<path d="M48,51.6h10l-6,10h7l-13,16l3.6-12H43L48,51.6z"/>
<g>
	<path d="M40,65.6c-1.1,0-2,0.9-2,2v4c0,1.1,0.9,2,2,2c1.1,0,2-0.9,2-2v-4C42,66.5,41.1,65.6,40,65.6z"/>
	<path d="M40,53.6c-1.1,0-2,0.9-2,2v4c0,1.1,0.9,2,2,2c1.1,0,2-0.9,2-2v-4C42,54.5,41.1,53.6,40,53.6z"/>
	<path d="M62,53.6c-1.1,0-2,0.9-2,2v4c0,1.1,0.9,2,2,2c1.1,0,2-0.9,2-2V57h0v-1.4C64,54.5,63.1,53.6,62,53.6z"/>
	<path d="M62,65.6c-1.1,0-2,0.9-2,2v4c0,1.1,0.9,2,2,2c1.1,0,2-0.9,2-2v-4C64,66.5,63.1,65.6,62,65.6z"/>
	<path d="M60,41.6c-0.7,0-1.4,0.1-2,0.2c-2.7-4.9-8-8.2-14-8.2c-8.8,0-16,7.2-16,16c0,5.9,3.2,11.1,8,13.8v-4.9
		c-2.4-2.2-4-5.4-4-8.9c0-6.6,5.4-12,12-12c5.7,0,10.4,4,11.7,9.3c1.2-0.8,2.7-1.3,4.3-1.3c4.4,0,8,3.6,8,8c0,2-0.8,3.9-2,5.3V64
		c3.6-2.1,6-5.9,6-10.4C72,47,66.6,41.6,60,41.6z"/>
</g>
</svg>
